<svg xmlns="http://www.w3.org/2000/svg" width="24.758" height="24.758" viewBox="0 0 24.758 24.758">
  <path id="bone_icon" data-name="bone icon" d="M22.955,11.616a2.429,2.429,0,0,0,1.576-2.179v-.25A2.668,2.668,0,0,0,21.68,6.75a2.851,2.851,0,0,0-2.7,1.666c-.294.754-.445,1.479-1.461,1.479H7.017c-1.049,0-1.21-.837-1.461-1.479a2.85,2.85,0,0,0-2.7-1.666A2.668,2.668,0,0,0,0,9.187v.25a2.429,2.429,0,0,0,1.576,2.179.4.4,0,0,1,0,.749A2.429,2.429,0,0,0,0,14.544v.25a2.668,2.668,0,0,0,2.851,2.437,2.851,2.851,0,0,0,2.7-1.666c.294-.754.445-1.479,1.461-1.479h10.5c1.049,0,1.21.837,1.461,1.479a2.851,2.851,0,0,0,2.7,1.666,2.668,2.668,0,0,0,2.851-2.437v-.25a2.428,2.428,0,0,0-1.576-2.179A.4.4,0,0,1,22.955,11.616Z" transform="translate(-4.773 12.573) rotate(-45)" fill="#fff"/>
</svg>
