<svg xmlns="http://www.w3.org/2000/svg" width="27.444" height="24.394" viewBox="0 0 27.444 24.394">
  <path id="brain_icon" data-name="brain icon" d="M9.91,0A3.04,3.04,0,0,0,6.966,2.3c-.038,0-.067-.01-.1-.01A3.052,3.052,0,0,0,3.812,5.336,2.81,2.81,0,0,0,3.893,6,3.779,3.779,0,0,0,1.92,11.192a3.8,3.8,0,0,0,.434,6.813,3.491,3.491,0,0,0-.067.672,3.428,3.428,0,0,0,3.43,3.43,3.23,3.23,0,0,0,.572-.057,3.422,3.422,0,0,0,6.67-1.086V3.049A3.052,3.052,0,0,0,9.91,0ZM27.444,14.484a3.792,3.792,0,0,0-1.92-3.292,3.75,3.75,0,0,0,.4-1.663A3.812,3.812,0,0,0,23.551,6a3.021,3.021,0,0,0-2.968-3.716c-.038,0-.071.01-.1.01a3.043,3.043,0,0,0-5.994.753V20.964a3.422,3.422,0,0,0,6.67,1.086,3.23,3.23,0,0,0,.572.057,3.428,3.428,0,0,0,3.43-3.43,3.491,3.491,0,0,0-.067-.672A3.812,3.812,0,0,0,27.444,14.484Z" fill="#fff"/>
</svg>
