<svg xmlns="http://www.w3.org/2000/svg" width="20.96" height="27.818" viewBox="0 0 20.96 27.818">
  <path id="dental_icon" data-name="dental icon" d="M15.519,16.227c2.083,0,3.048,1.58,3.251,3.824a15.419,15.419,0,0,1-.07,2.226c-.234,3.011-.5,6.711,1.5,6.711,1.7,0,2.567-3.253,3.07-6.962.485-3.671-.03-5.5.224-7.128.482-3.089,3.178-5.858,2.345-9.8a4.545,4.545,0,0,0-2.856-3.645c-2.745-1-4.518.926-7.466.926S10.8.458,8.055,1.457A4.548,4.548,0,0,0,5.2,5.1c-.831,3.938,1.864,6.707,2.348,9.8.252,1.63-.26,3.457.224,7.128.5,3.709,1.374,6.962,3.069,6.962,2,0,1.736-3.7,1.5-6.711a15.529,15.529,0,0,1-.071-2.227C12.472,17.807,13.451,16.227,15.519,16.227Z" transform="translate(-5.039 -1.17)" fill="#fff"/>
</svg>
