<svg xmlns="http://www.w3.org/2000/svg" width="7.917" height="7.5" viewBox="0 0 7.917 7.5">
  <path id="Star" d="M4.256.184l.965,1.94a.331.331,0,0,0,.249.182l2.161.312a.333.333,0,0,1,.22.128.321.321,0,0,1-.035.43L6.25,4.691a.317.317,0,0,0-.094.29l.377,2.137a.328.328,0,0,1-.271.372.359.359,0,0,1-.215-.033L4.12,6.449a.325.325,0,0,0-.309,0L1.873,7.463a.338.338,0,0,1-.449-.137.33.33,0,0,1-.034-.208l.377-2.137a.328.328,0,0,0-.094-.29L.1,3.175a.327.327,0,0,1,0-.464.379.379,0,0,1,.189-.093l2.161-.312a.339.339,0,0,0,.249-.182L3.66.184A.327.327,0,0,1,3.851.017.332.332,0,0,1,4.1.035.341.341,0,0,1,4.256.184Z" transform="translate(0 0)" fill="gold"/>
</svg>
